<svg xmlns="http://www.w3.org/2000/svg" xmlns:xlink="http://www.w3.org/1999/xlink" width="270" zoomAndPan="magnify" viewBox="0 0 202.5 89.999999" height="120" preserveAspectRatio="xMidYMid meet" version="1.0"><defs><g/></defs><g fill="#e4e2dd" fill-opacity="1"><g transform="translate(0.757313, 62.162145)"><g><path d="M 31.359375 -24.8125 C 33.179688 -24.71875 34.898438 -24.332031 36.515625 -23.65625 C 38.128906 -22.976562 39.535156 -22.078125 40.734375 -20.953125 C 41.929688 -19.828125 42.878906 -18.535156 43.578125 -17.078125 C 44.285156 -15.628906 44.640625 -14.0625 44.640625 -12.375 C 44.640625 -10.6875 44.273438 -9.09375 43.546875 -7.59375 C 42.816406 -6.09375 41.816406 -4.78125 40.546875 -3.65625 C 39.285156 -2.53125 37.800781 -1.640625 36.09375 -0.984375 C 34.382812 -0.328125 32.570312 0 30.65625 0 L 22.359375 0 C 23.484375 0 24.535156 -0.335938 25.515625 -1.015625 C 26.503906 -1.691406 27.375 -2.59375 28.125 -3.71875 C 28.875 -4.84375 29.457031 -6.15625 29.875 -7.65625 C 30.300781 -9.15625 30.515625 -10.75 30.515625 -12.4375 C 30.515625 -14.082031 30.300781 -15.640625 29.875 -17.109375 C 29.457031 -18.585938 28.875 -19.878906 28.125 -20.984375 C 27.375 -22.085938 26.503906 -22.96875 25.515625 -23.625 C 24.535156 -24.28125 23.484375 -24.609375 22.359375 -24.609375 L 20.953125 -24.609375 C 21.929688 -24.609375 22.851562 -24.9375 23.71875 -25.59375 C 24.59375 -26.25 25.34375 -27.125 25.96875 -28.21875 C 26.601562 -29.320312 27.109375 -30.613281 27.484375 -32.09375 C 27.859375 -33.570312 28.046875 -35.128906 28.046875 -36.765625 C 28.046875 -38.453125 27.859375 -40.046875 27.484375 -41.546875 C 27.109375 -43.046875 26.601562 -44.359375 25.96875 -45.484375 C 25.34375 -46.609375 24.59375 -47.507812 23.71875 -48.1875 C 22.851562 -48.863281 21.929688 -49.203125 20.953125 -49.203125 L 28.1875 -49.203125 C 29.875 -49.203125 31.46875 -48.875 32.96875 -48.21875 C 34.46875 -47.5625 35.78125 -46.671875 36.90625 -45.546875 C 38.03125 -44.421875 38.90625 -43.109375 39.53125 -41.609375 C 40.164062 -40.109375 40.484375 -38.492188 40.484375 -36.765625 C 40.484375 -35.359375 40.25 -34.007812 39.78125 -32.71875 C 39.3125 -31.4375 38.664062 -30.265625 37.84375 -29.203125 C 37.03125 -28.148438 36.070312 -27.238281 34.96875 -26.46875 C 33.875 -25.695312 32.671875 -25.144531 31.359375 -24.8125 Z M 18.34375 -49.203125 L 18.34375 0 L 1.75 0 C 2.925781 0 3.921875 -0.476562 4.734375 -1.4375 C 5.554688 -2.394531 5.96875 -3.460938 5.96875 -4.640625 L 5.96875 -44.5625 C 5.96875 -45.738281 5.554688 -46.804688 4.734375 -47.765625 C 3.921875 -48.722656 2.925781 -49.203125 1.75 -49.203125 Z M 18.34375 -49.203125 "/></g></g></g><g fill="#e4e2dd" fill-opacity="1"><g transform="translate(42.230114, 62.162145)"><g><path d="M 24.1875 -35.921875 C 25.6875 -35.828125 26.972656 -35.273438 28.046875 -34.265625 C 29.128906 -33.265625 29.671875 -32.015625 29.671875 -30.515625 C 29.671875 -29.015625 29.128906 -27.722656 28.046875 -26.640625 C 26.972656 -25.566406 25.6875 -25.03125 24.1875 -25.03125 C 23.4375 -25.03125 22.734375 -25.171875 22.078125 -25.453125 C 21.421875 -25.734375 20.84375 -26.117188 20.34375 -26.609375 C 19.851562 -27.097656 19.46875 -27.679688 19.1875 -28.359375 C 18.90625 -29.046875 18.765625 -29.765625 18.765625 -30.515625 C 18.765625 -30.796875 18.8125 -31.171875 18.90625 -31.640625 C 19.144531 -32.578125 18.957031 -33.21875 18.34375 -33.5625 C 17.738281 -33.914062 16.753906 -33.765625 15.390625 -33.109375 C 16.003906 -33.441406 16.6875 -33.769531 17.4375 -34.09375 C 18.1875 -34.425781 18.945312 -34.726562 19.71875 -35 C 20.488281 -35.28125 21.257812 -35.515625 22.03125 -35.703125 C 22.8125 -35.890625 23.53125 -35.960938 24.1875 -35.921875 Z M 15.1875 -3.859375 C 15.1875 -3.015625 15.46875 -2.191406 16.03125 -1.390625 C 16.59375 -0.597656 17.269531 -0.132812 18.0625 0 L 1.75 0 C 2.550781 -0.132812 3.234375 -0.597656 3.796875 -1.390625 C 4.359375 -2.191406 4.640625 -3.015625 4.640625 -3.859375 L 4.640625 -28.890625 C 4.640625 -29.785156 4.359375 -30.617188 3.796875 -31.390625 C 3.234375 -32.160156 2.550781 -32.617188 1.75 -32.765625 L 13.78125 -34.515625 L 13.984375 -34.515625 C 14.785156 -34.515625 15.1875 -34.117188 15.1875 -33.328125 Z M 15.1875 -3.859375 "/></g></g></g><g fill="#e4e2dd" fill-opacity="1"><g transform="translate(68.730308, 62.162145)"><g><path d="M 9.34375 -19.75 C 7.84375 -19.75 6.566406 -20.273438 5.515625 -21.328125 C 4.460938 -22.390625 3.9375 -23.671875 3.9375 -25.171875 C 3.9375 -26.335938 4.285156 -27.484375 4.984375 -28.609375 C 5.691406 -29.734375 6.609375 -30.738281 7.734375 -31.625 C 8.859375 -32.519531 10.125 -33.269531 11.53125 -33.875 C 12.9375 -34.488281 14.34375 -34.863281 15.75 -35 C 14.476562 -34.820312 13.503906 -34.453125 12.828125 -33.890625 C 12.148438 -33.328125 11.8125 -32.671875 11.8125 -31.921875 C 11.8125 -31.398438 11.953125 -30.894531 12.234375 -30.40625 C 12.515625 -29.914062 12.863281 -29.410156 13.28125 -28.890625 C 14.3125 -27.953125 14.828125 -26.710938 14.828125 -25.171875 C 14.828125 -23.671875 14.285156 -22.390625 13.203125 -21.328125 C 12.128906 -20.273438 10.84375 -19.75 9.34375 -19.75 Z M 30.578125 -5.265625 C 30.578125 -4.421875 30.859375 -3.597656 31.421875 -2.796875 C 31.984375 -2.003906 32.664062 -1.539062 33.46875 -1.40625 L 21.375 0.34375 L 21.234375 0.34375 C 20.859375 0.34375 20.550781 0.226562 20.3125 0 C 20.082031 -0.226562 19.96875 -0.53125 19.96875 -0.90625 L 19.96875 -21.234375 C 19.40625 -20.953125 18.710938 -20.597656 17.890625 -20.171875 C 17.066406 -19.753906 16.269531 -19.191406 15.5 -18.484375 C 14.726562 -17.785156 14.046875 -16.894531 13.453125 -15.8125 C 12.867188 -14.738281 12.507812 -13.378906 12.375 -11.734375 C 12.226562 -10.046875 12.351562 -8.554688 12.75 -7.265625 C 13.15625 -5.984375 13.734375 -4.941406 14.484375 -4.140625 C 15.234375 -3.347656 16.125 -2.785156 17.15625 -2.453125 C 18.1875 -2.128906 19.078125 -2.15625 19.828125 -2.53125 C 18.984375 -1.914062 17.859375 -1.28125 16.453125 -0.625 C 15.046875 0.0195312 13.378906 0.34375 11.453125 0.34375 C 9.253906 0.34375 7.265625 -0.238281 5.484375 -1.40625 C 3.703125 -2.570312 2.550781 -4.140625 2.03125 -6.109375 C 1.46875 -8.128906 1.664062 -10.085938 2.625 -11.984375 C 3.59375 -13.878906 5.0625 -15.4375 7.03125 -16.65625 C 8.0625 -17.269531 9.3125 -17.867188 10.78125 -18.453125 C 12.257812 -19.035156 13.832031 -19.609375 15.5 -20.171875 C 17.164062 -20.734375 18.816406 -21.296875 20.453125 -21.859375 C 22.097656 -22.421875 23.585938 -23.03125 24.921875 -23.6875 C 26.253906 -24.34375 27.351562 -25.046875 28.21875 -25.796875 C 29.09375 -26.546875 29.550781 -27.390625 29.59375 -28.328125 C 29.644531 -28.890625 29.539062 -29.488281 29.28125 -30.125 C 29.019531 -30.757812 28.65625 -31.332031 28.1875 -31.84375 C 29.457031 -30.625 30.234375 -29.21875 30.515625 -27.625 C 30.554688 -27.4375 30.578125 -27.25 30.578125 -27.0625 C 30.578125 -26.875 30.578125 -26.6875 30.578125 -26.5 Z M 30.578125 -5.265625 "/></g></g></g><g fill="#e4e2dd" fill-opacity="1"><g transform="translate(99.026369, 62.162145)"><g><path d="M 15.1875 -20.53125 L 15.1875 -3.859375 C 15.1875 -3.015625 15.46875 -2.191406 16.03125 -1.390625 C 16.59375 -0.597656 17.269531 -0.132812 18.0625 0 L 1.75 0 C 2.550781 -0.132812 3.234375 -0.597656 3.796875 -1.390625 C 4.359375 -2.191406 4.640625 -3.015625 4.640625 -3.859375 L 4.640625 -28.890625 C 4.640625 -29.785156 4.359375 -30.617188 3.796875 -31.390625 C 3.234375 -32.160156 2.550781 -32.617188 1.75 -32.765625 L 13.78125 -34.515625 L 13.984375 -34.515625 C 14.785156 -34.515625 15.1875 -34.117188 15.1875 -33.328125 Z M 33.671875 -3.859375 C 33.671875 -3.015625 33.953125 -2.191406 34.515625 -1.390625 C 35.078125 -0.597656 35.753906 -0.132812 36.546875 0 L 20.25 0 C 21.039062 -0.132812 21.71875 -0.597656 22.28125 -1.390625 C 22.84375 -2.191406 23.125 -3.015625 23.125 -3.859375 L 23.125 -24.609375 C 23.125 -25.492188 23.3125 -26.238281 23.6875 -26.84375 C 24.0625 -27.457031 24.484375 -28.007812 24.953125 -28.5 C 25.421875 -29 25.84375 -29.492188 26.21875 -29.984375 C 26.59375 -30.472656 26.78125 -31.046875 26.78125 -31.703125 C 26.78125 -32.503906 26.332031 -33.195312 25.4375 -33.78125 C 24.550781 -34.363281 23.40625 -34.65625 22 -34.65625 C 20.5 -34.65625 19.160156 -34.46875 17.984375 -34.09375 C 16.816406 -33.71875 16 -33.414062 15.53125 -33.1875 C 17.175781 -33.976562 19.039062 -34.570312 21.125 -34.96875 C 23.207031 -35.363281 25.1875 -35.351562 27.0625 -34.9375 C 28.9375 -34.519531 30.503906 -33.582031 31.765625 -32.125 C 33.035156 -30.675781 33.671875 -28.5 33.671875 -25.59375 Z M 33.671875 -3.859375 "/></g></g></g><g fill="#e4e2dd" fill-opacity="1"><g transform="translate(132.415369, 62.162145)"><g><path d="M 1.890625 -18.84375 C 2.128906 -21.28125 2.738281 -23.550781 3.71875 -25.65625 C 4.707031 -27.769531 5.9375 -29.5625 7.40625 -31.03125 C 8.882812 -32.507812 10.523438 -33.625 12.328125 -34.375 C 14.140625 -35.125 16.003906 -35.40625 17.921875 -35.21875 C 19.796875 -34.988281 21.367188 -34.546875 22.640625 -33.890625 C 21.984375 -34.171875 21.328125 -34.3125 20.671875 -34.3125 C 19.492188 -34.3125 18.398438 -33.875 17.390625 -33 C 16.390625 -32.132812 15.5 -30.960938 14.71875 -29.484375 C 13.945312 -28.015625 13.335938 -26.304688 12.890625 -24.359375 C 12.453125 -22.410156 12.234375 -20.359375 12.234375 -18.203125 C 12.234375 -16.046875 12.453125 -13.984375 12.890625 -12.015625 C 13.335938 -10.046875 13.945312 -8.3125 14.71875 -6.8125 C 15.5 -5.3125 16.390625 -4.113281 17.390625 -3.21875 C 18.398438 -2.332031 19.492188 -1.890625 20.671875 -1.890625 C 21.046875 -1.890625 21.382812 -1.9375 21.6875 -2.03125 C 21.988281 -2.125 22.304688 -2.242188 22.640625 -2.390625 C 21.367188 -1.398438 19.992188 -0.660156 18.515625 -0.171875 C 17.046875 0.316406 15.535156 0.46875 13.984375 0.28125 C 12.066406 0.09375 10.3125 -0.546875 8.71875 -1.640625 C 7.125 -2.742188 5.773438 -4.160156 4.671875 -5.890625 C 3.566406 -7.628906 2.753906 -9.613281 2.234375 -11.84375 C 1.722656 -14.070312 1.609375 -16.40625 1.890625 -18.84375 Z M 33.53125 -5.265625 C 33.53125 -4.421875 33.8125 -3.597656 34.375 -2.796875 C 34.9375 -2.003906 35.613281 -1.539062 36.40625 -1.40625 L 24.390625 0.34375 L 24.1875 0.34375 C 23.851562 0.34375 23.566406 0.226562 23.328125 0 C 23.097656 -0.226562 22.984375 -0.53125 22.984375 -0.90625 L 22.984375 -43.578125 C 22.984375 -44.421875 22.703125 -45.238281 22.140625 -46.03125 C 21.578125 -46.832031 20.898438 -47.304688 20.109375 -47.453125 L 32.125 -49.203125 L 32.34375 -49.203125 C 32.71875 -49.203125 33.007812 -49.082031 33.21875 -48.84375 C 33.425781 -48.613281 33.53125 -48.3125 33.53125 -47.9375 Z M 33.53125 -5.265625 "/></g></g></g><g fill="#e4e2dd" fill-opacity="1"><g transform="translate(165.663783, 62.162145)"><g><path d="M 18.34375 -35.21875 C 20.5 -35.125 22.515625 -34.597656 24.390625 -33.640625 C 26.265625 -32.679688 27.90625 -31.40625 29.3125 -29.8125 C 30.71875 -28.21875 31.816406 -26.351562 32.609375 -24.21875 C 33.410156 -22.082031 33.8125 -19.820312 33.8125 -17.4375 C 33.8125 -15.039062 33.410156 -12.773438 32.609375 -10.640625 C 31.816406 -8.515625 30.71875 -6.65625 29.3125 -5.0625 C 27.90625 -3.46875 26.265625 -2.191406 24.390625 -1.234375 C 22.515625 -0.273438 20.5 0.25 18.34375 0.34375 C 19.9375 0.0195312 21.144531 -1.648438 21.96875 -4.671875 C 22.789062 -7.691406 23.203125 -11.945312 23.203125 -17.4375 C 23.203125 -22.914062 22.789062 -27.164062 21.96875 -30.1875 C 21.144531 -33.21875 19.9375 -34.894531 18.34375 -35.21875 Z M 17.15625 -35.21875 C 15.601562 -34.894531 14.40625 -33.21875 13.5625 -30.1875 C 12.71875 -27.164062 12.296875 -22.914062 12.296875 -17.4375 C 12.296875 -11.945312 12.71875 -7.691406 13.5625 -4.671875 C 14.40625 -1.648438 15.601562 0.0195312 17.15625 0.34375 C 15 0.25 12.984375 -0.273438 11.109375 -1.234375 C 9.234375 -2.191406 7.601562 -3.46875 6.21875 -5.0625 C 4.832031 -6.65625 3.738281 -8.515625 2.9375 -10.640625 C 2.144531 -12.773438 1.75 -15.039062 1.75 -17.4375 C 1.75 -19.820312 2.144531 -22.082031 2.9375 -24.21875 C 3.738281 -26.351562 4.832031 -28.21875 6.21875 -29.8125 C 7.601562 -31.40625 9.234375 -32.679688 11.109375 -33.640625 C 12.984375 -34.597656 15 -35.125 17.15625 -35.21875 Z M 17.15625 -35.21875 "/></g></g></g><g fill="#ffffff" fill-opacity="1"><g transform="translate(1.084833, 82.98369)"><g><path d="M 3.328125 0.09375 C 2.609375 0.09375 2.023438 -0.0859375 1.578125 -0.453125 C 1.140625 -0.816406 0.921875 -1.398438 0.921875 -2.203125 C 0.921875 -2.460938 0.941406 -2.726562 0.984375 -3 L 1.625 -6.84375 L 3.140625 -6.84375 L 2.53125 -3.09375 C 2.488281 -2.882812 2.46875 -2.695312 2.46875 -2.53125 C 2.46875 -1.75 2.832031 -1.359375 3.5625 -1.359375 C 4.050781 -1.359375 4.421875 -1.515625 4.671875 -1.828125 C 4.921875 -2.148438 5.085938 -2.570312 5.171875 -3.09375 L 5.796875 -6.84375 L 7.3125 -6.84375 L 6.671875 -3 C 6.492188 -1.914062 6.101562 -1.128906 5.5 -0.640625 C 4.894531 -0.148438 4.171875 0.09375 3.328125 0.09375 Z M 3.328125 0.09375 "/></g></g></g><g fill="#ffffff" fill-opacity="1"><g transform="translate(9.86274, 82.98369)"><g><path d="M 1.609375 -6.84375 L 3.390625 -6.84375 L 5.15625 -2.34375 L 5.1875 -2.34375 L 5.921875 -6.84375 L 7.4375 -6.84375 L 6.3125 0.015625 L 4.53125 0.015625 L 2.765625 -4.328125 L 2.71875 -4.328125 L 2.015625 0.015625 L 0.515625 0.015625 Z M 1.609375 -6.84375 "/></g></g></g><g fill="#ffffff" fill-opacity="1"><g transform="translate(18.767694, 82.98369)"><g><path d="M 5.140625 -1.328125 L 4.921875 0 L 0.515625 0 L 1.609375 -6.84375 L 3.15625 -6.84375 L 2.25 -1.328125 Z M 5.140625 -1.328125 "/></g></g></g><g fill="#ffffff" fill-opacity="1"><g transform="translate(26.079687, 82.98369)"><g><path d="M 2.9375 -5.515625 L 2.703125 -4.0625 L 5.296875 -4.0625 L 5.109375 -2.875 L 2.515625 -2.875 L 2.265625 -1.328125 L 5.34375 -1.328125 L 5.140625 0 L 0.515625 0 L 1.625 -6.84375 L 6.25 -6.84375 L 6.046875 -5.515625 Z M 2.9375 -5.515625 "/></g></g></g><g fill="#ffffff" fill-opacity="1"><g transform="translate(33.694631, 82.98369)"><g><path d="M 4.65625 -1.578125 L 2.46875 -1.578125 L 1.71875 0 L 0.171875 0 L 3.734375 -6.84375 L 5.140625 -6.84375 L 6.453125 0 L 4.90625 0 Z M 4.484375 -2.75 L 4.140625 -4.953125 L 4.078125 -4.953125 L 3.03125 -2.75 Z M 4.484375 -2.75 "/></g></g></g><g fill="#ffffff" fill-opacity="1"><g transform="translate(42.355261, 82.98369)"><g><path d="M 3.015625 0.09375 C 2.503906 0.09375 2.078125 0 1.734375 -0.1875 C 1.390625 -0.382812 1.132812 -0.632812 0.96875 -0.9375 C 0.800781 -1.25 0.71875 -1.585938 0.71875 -1.953125 C 0.71875 -2.054688 0.71875 -2.128906 0.71875 -2.171875 L 0.734375 -2.25 L 2.390625 -2.25 L 2.390625 -2.1875 C 2.390625 -1.925781 2.453125 -1.703125 2.578125 -1.515625 C 2.710938 -1.335938 2.941406 -1.25 3.265625 -1.25 C 3.566406 -1.25 3.816406 -1.332031 4.015625 -1.5 C 4.222656 -1.675781 4.328125 -1.890625 4.328125 -2.140625 C 4.328125 -2.316406 4.265625 -2.457031 4.140625 -2.5625 C 4.015625 -2.675781 3.859375 -2.75 3.671875 -2.78125 L 2.921875 -2.9375 C 2.535156 -3.03125 2.175781 -3.195312 1.84375 -3.4375 C 1.507812 -3.675781 1.34375 -4.0625 1.34375 -4.59375 C 1.34375 -5.039062 1.457031 -5.445312 1.6875 -5.8125 C 1.925781 -6.1875 2.253906 -6.472656 2.671875 -6.671875 C 3.097656 -6.878906 3.578125 -6.984375 4.109375 -6.984375 C 4.628906 -6.984375 5.054688 -6.882812 5.390625 -6.6875 C 5.734375 -6.488281 5.984375 -6.226562 6.140625 -5.90625 C 6.296875 -5.582031 6.375 -5.238281 6.375 -4.875 L 6.375 -4.828125 L 4.640625 -4.828125 L 4.640625 -4.859375 C 4.640625 -5.078125 4.582031 -5.273438 4.46875 -5.453125 C 4.363281 -5.628906 4.15625 -5.71875 3.84375 -5.71875 C 3.570312 -5.71875 3.34375 -5.632812 3.15625 -5.46875 C 2.976562 -5.300781 2.890625 -5.09375 2.890625 -4.84375 C 2.890625 -4.519531 3.132812 -4.304688 3.625 -4.203125 L 4.375 -4.03125 C 4.820312 -3.925781 5.195312 -3.742188 5.5 -3.484375 C 5.800781 -3.222656 5.953125 -2.863281 5.953125 -2.40625 C 5.953125 -1.945312 5.820312 -1.523438 5.5625 -1.140625 C 5.3125 -0.753906 4.957031 -0.453125 4.5 -0.234375 C 4.050781 -0.015625 3.554688 0.09375 3.015625 0.09375 Z M 3.015625 0.09375 "/></g></g></g><g fill="#ffffff" fill-opacity="1"><g transform="translate(50.351348, 82.98369)"><g><path d="M 7.25 -6.84375 L 6.140625 0 L 4.609375 0 L 5.0625 -2.84375 L 2.5 -2.84375 L 2.03125 0 L 0.515625 0 L 1.609375 -6.84375 L 3.140625 -6.84375 L 2.6875 -4.03125 L 5.265625 -4.03125 L 5.71875 -6.84375 Z M 7.25 -6.84375 "/></g></g></g><g fill="#ffffff" fill-opacity="1"><g transform="translate(59.080393, 82.98369)"><g><path d="M 1.6875 -6.84375 L 3.234375 -6.84375 L 2.109375 0 L 0.578125 0 Z M 1.6875 -6.84375 "/></g></g></g><g fill="#ffffff" fill-opacity="1"><g transform="translate(63.861248, 82.98369)"><g><path d="M 1.609375 -6.84375 L 3.390625 -6.84375 L 5.15625 -2.34375 L 5.1875 -2.34375 L 5.921875 -6.84375 L 7.4375 -6.84375 L 6.3125 0.015625 L 4.53125 0.015625 L 2.765625 -4.328125 L 2.71875 -4.328125 L 2.015625 0.015625 L 0.515625 0.015625 Z M 1.609375 -6.84375 "/></g></g></g><g fill="#ffffff" fill-opacity="1"><g transform="translate(72.766201, 82.98369)"><g><path d="M 3.34375 0.09375 C 2.800781 0.09375 2.34375 -0.03125 1.96875 -0.28125 C 1.601562 -0.53125 1.332031 -0.859375 1.15625 -1.265625 C 0.976562 -1.679688 0.890625 -2.144531 0.890625 -2.65625 C 0.890625 -3.445312 1.054688 -4.171875 1.390625 -4.828125 C 1.722656 -5.492188 2.175781 -6.019531 2.75 -6.40625 C 3.332031 -6.789062 3.96875 -6.984375 4.65625 -6.984375 C 5.425781 -6.984375 6.023438 -6.765625 6.453125 -6.328125 C 6.878906 -5.898438 7.140625 -5.335938 7.234375 -4.640625 L 5.640625 -4.640625 C 5.597656 -4.941406 5.476562 -5.179688 5.28125 -5.359375 C 5.082031 -5.546875 4.804688 -5.640625 4.453125 -5.640625 C 4.078125 -5.640625 3.734375 -5.507812 3.421875 -5.25 C 3.117188 -5 2.878906 -4.648438 2.703125 -4.203125 C 2.523438 -3.753906 2.4375 -3.253906 2.4375 -2.703125 C 2.4375 -2.203125 2.550781 -1.8125 2.78125 -1.53125 C 3.007812 -1.257812 3.34375 -1.125 3.78125 -1.125 C 4.09375 -1.125 4.363281 -1.191406 4.59375 -1.328125 C 4.832031 -1.460938 5.019531 -1.640625 5.15625 -1.859375 C 5.300781 -2.078125 5.382812 -2.300781 5.40625 -2.53125 L 5.421875 -2.65625 L 4.171875 -2.65625 L 4.34375 -3.75 L 7.125 -3.75 L 6.515625 0 L 5.390625 0 L 5.546875 -0.96875 L 5.46875 -0.96875 C 4.945312 -0.257812 4.238281 0.09375 3.34375 0.09375 Z M 3.34375 0.09375 "/></g></g></g><g fill="#ffffff" fill-opacity="1"><g transform="translate(81.856834, 82.98369)"><g/></g></g><g fill="#ffffff" fill-opacity="1"><g transform="translate(86.188142, 82.98369)"><g><path d="M 1.609375 -6.84375 L 4.546875 -6.84375 C 5.097656 -6.84375 5.515625 -6.707031 5.796875 -6.4375 C 6.085938 -6.175781 6.234375 -5.835938 6.234375 -5.421875 C 6.234375 -5.128906 6.171875 -4.859375 6.046875 -4.609375 C 5.929688 -4.367188 5.78125 -4.171875 5.59375 -4.015625 C 5.414062 -3.859375 5.222656 -3.75 5.015625 -3.6875 L 4.984375 -3.625 C 5.160156 -3.601562 5.332031 -3.539062 5.5 -3.4375 C 5.675781 -3.332031 5.820312 -3.179688 5.9375 -2.984375 C 6.0625 -2.796875 6.125 -2.5625 6.125 -2.28125 C 6.125 -1.90625 6.019531 -1.535156 5.8125 -1.171875 C 5.601562 -0.816406 5.3125 -0.53125 4.9375 -0.3125 C 4.570312 -0.09375 4.148438 0.015625 3.671875 0.015625 L 0.515625 0.015625 Z M 3.65625 -4.0625 C 3.976562 -4.0625 4.238281 -4.144531 4.4375 -4.3125 C 4.644531 -4.488281 4.75 -4.722656 4.75 -5.015625 C 4.75 -5.234375 4.664062 -5.390625 4.5 -5.484375 C 4.332031 -5.585938 4.132812 -5.640625 3.90625 -5.640625 L 2.921875 -5.640625 L 2.65625 -4.0625 Z M 3.515625 -1.203125 C 3.867188 -1.203125 4.148438 -1.300781 4.359375 -1.5 C 4.578125 -1.695312 4.6875 -1.953125 4.6875 -2.265625 C 4.6875 -2.515625 4.597656 -2.691406 4.421875 -2.796875 C 4.242188 -2.910156 4.039062 -2.96875 3.8125 -2.96875 L 2.5 -2.96875 L 2.203125 -1.203125 Z M 3.515625 -1.203125 "/></g></g></g><g fill="#ffffff" fill-opacity="1"><g transform="translate(94.369909, 82.98369)"><g><path d="M 6.375 -4.984375 C 6.375 -4.441406 6.222656 -3.957031 5.921875 -3.53125 C 5.628906 -3.113281 5.222656 -2.804688 4.703125 -2.609375 L 5.75 0 L 4.15625 0 L 3.203125 -2.390625 L 2.421875 -2.390625 L 2.03125 0 L 0.515625 0 L 1.609375 -6.84375 L 4.21875 -6.84375 C 4.9375 -6.84375 5.472656 -6.664062 5.828125 -6.3125 C 6.191406 -5.96875 6.375 -5.523438 6.375 -4.984375 Z M 2.625 -3.640625 L 3.453125 -3.640625 C 3.890625 -3.640625 4.234375 -3.738281 4.484375 -3.9375 C 4.742188 -4.144531 4.875 -4.421875 4.875 -4.765625 C 4.875 -5.035156 4.769531 -5.226562 4.5625 -5.34375 C 4.351562 -5.457031 4.085938 -5.515625 3.765625 -5.515625 L 2.921875 -5.515625 Z M 2.625 -3.640625 "/></g></g></g><g fill="#ffffff" fill-opacity="1"><g transform="translate(102.395318, 82.98369)"><g><path d="M 4.65625 -1.578125 L 2.46875 -1.578125 L 1.71875 0 L 0.171875 0 L 3.734375 -6.84375 L 5.140625 -6.84375 L 6.453125 0 L 4.90625 0 Z M 4.484375 -2.75 L 4.140625 -4.953125 L 4.078125 -4.953125 L 3.03125 -2.75 Z M 4.484375 -2.75 "/></g></g></g><g fill="#ffffff" fill-opacity="1"><g transform="translate(111.055948, 82.98369)"><g><path d="M 1.609375 -6.84375 L 3.390625 -6.84375 L 5.15625 -2.34375 L 5.1875 -2.34375 L 5.921875 -6.84375 L 7.4375 -6.84375 L 6.3125 0.015625 L 4.53125 0.015625 L 2.765625 -4.328125 L 2.71875 -4.328125 L 2.015625 0.015625 L 0.515625 0.015625 Z M 1.609375 -6.84375 "/></g></g></g><g fill="#ffffff" fill-opacity="1"><g transform="translate(119.960901, 82.98369)"><g><path d="M 1.609375 -6.859375 L 4.328125 -6.859375 C 5.117188 -6.859375 5.742188 -6.625 6.203125 -6.15625 C 6.671875 -5.695312 6.90625 -5.050781 6.90625 -4.21875 C 6.90625 -3.425781 6.742188 -2.707031 6.421875 -2.0625 C 6.097656 -1.425781 5.65625 -0.925781 5.09375 -0.5625 C 4.53125 -0.195312 3.894531 -0.015625 3.1875 -0.015625 L 0.515625 -0.015625 Z M 3.125 -1.375 C 3.78125 -1.375 4.300781 -1.609375 4.6875 -2.078125 C 5.070312 -2.546875 5.265625 -3.210938 5.265625 -4.078125 C 5.265625 -4.609375 5.128906 -4.976562 4.859375 -5.1875 C 4.585938 -5.394531 4.238281 -5.5 3.8125 -5.5 L 2.875 -5.5 L 2.203125 -1.375 Z M 3.125 -1.375 "/></g></g></g><g fill="#ffffff" fill-opacity="1"><g transform="translate(128.660619, 82.98369)"><g/></g></g><g fill="#ffffff" fill-opacity="1"><g transform="translate(132.991927, 82.98369)"><g><path d="M 4.21875 -6.84375 C 4.925781 -6.84375 5.457031 -6.65625 5.8125 -6.28125 C 6.175781 -5.914062 6.359375 -5.457031 6.359375 -4.90625 C 6.359375 -4.382812 6.234375 -3.910156 5.984375 -3.484375 C 5.742188 -3.054688 5.398438 -2.71875 4.953125 -2.46875 C 4.515625 -2.226562 4.015625 -2.109375 3.453125 -2.109375 L 2.34375 -2.109375 L 2 0 L 0.515625 0 L 1.609375 -6.84375 Z M 3.40625 -3.359375 C 3.851562 -3.359375 4.207031 -3.476562 4.46875 -3.71875 C 4.726562 -3.957031 4.859375 -4.28125 4.859375 -4.6875 C 4.859375 -4.988281 4.753906 -5.195312 4.546875 -5.3125 C 4.347656 -5.4375 4.085938 -5.5 3.765625 -5.5 L 2.90625 -5.5 L 2.546875 -3.359375 Z M 3.40625 -3.359375 "/></g></g></g><g fill="#ffffff" fill-opacity="1"><g transform="translate(140.802335, 82.98369)"><g><path d="M 3.515625 0.09375 C 2.921875 0.09375 2.421875 -0.0234375 2.015625 -0.265625 C 1.617188 -0.503906 1.320312 -0.832031 1.125 -1.25 C 0.9375 -1.664062 0.84375 -2.132812 0.84375 -2.65625 C 0.84375 -3.445312 1.007812 -4.171875 1.34375 -4.828125 C 1.6875 -5.492188 2.148438 -6.019531 2.734375 -6.40625 C 3.316406 -6.789062 3.957031 -6.984375 4.65625 -6.984375 C 5.238281 -6.984375 5.722656 -6.863281 6.109375 -6.625 C 6.503906 -6.382812 6.796875 -6.050781 6.984375 -5.625 C 7.179688 -5.207031 7.28125 -4.734375 7.28125 -4.203125 C 7.28125 -3.398438 7.113281 -2.671875 6.78125 -2.015625 C 6.457031 -1.359375 6.003906 -0.84375 5.421875 -0.46875 C 4.847656 -0.09375 4.210938 0.09375 3.515625 0.09375 Z M 3.71875 -1.265625 C 4.070312 -1.265625 4.394531 -1.390625 4.6875 -1.640625 C 4.976562 -1.890625 5.207031 -2.226562 5.375 -2.65625 C 5.550781 -3.082031 5.640625 -3.546875 5.640625 -4.046875 C 5.640625 -4.515625 5.535156 -4.894531 5.328125 -5.1875 C 5.128906 -5.476562 4.832031 -5.625 4.4375 -5.625 C 4.082031 -5.625 3.753906 -5.492188 3.453125 -5.234375 C 3.160156 -4.984375 2.925781 -4.644531 2.75 -4.21875 C 2.582031 -3.789062 2.5 -3.328125 2.5 -2.828125 C 2.5 -2.367188 2.597656 -1.992188 2.796875 -1.703125 C 3.003906 -1.410156 3.3125 -1.265625 3.71875 -1.265625 Z M 3.71875 -1.265625 "/></g></g></g><g fill="#ffffff" fill-opacity="1"><g transform="translate(149.941827, 82.98369)"><g><path d="M 6.375 -5.515625 L 4.5625 -5.515625 L 3.65625 0 L 2.140625 0 L 3.046875 -5.515625 L 1.25 -5.515625 L 1.453125 -6.84375 L 6.578125 -6.84375 Z M 6.375 -5.515625 "/></g></g></g><g fill="#ffffff" fill-opacity="1"><g transform="translate(157.830411, 82.98369)"><g><path d="M 2.9375 -5.515625 L 2.703125 -4.0625 L 5.296875 -4.0625 L 5.109375 -2.875 L 2.515625 -2.875 L 2.265625 -1.328125 L 5.34375 -1.328125 L 5.140625 0 L 0.515625 0 L 1.625 -6.84375 L 6.25 -6.84375 L 6.046875 -5.515625 Z M 2.9375 -5.515625 "/></g></g></g><g fill="#ffffff" fill-opacity="1"><g transform="translate(165.445356, 82.98369)"><g><path d="M 1.609375 -6.84375 L 3.390625 -6.84375 L 5.15625 -2.34375 L 5.1875 -2.34375 L 5.921875 -6.84375 L 7.4375 -6.84375 L 6.3125 0.015625 L 4.53125 0.015625 L 2.765625 -4.328125 L 2.71875 -4.328125 L 2.015625 0.015625 L 0.515625 0.015625 Z M 1.609375 -6.84375 "/></g></g></g><g fill="#ffffff" fill-opacity="1"><g transform="translate(174.350309, 82.98369)"><g><path d="M 6.375 -5.515625 L 4.5625 -5.515625 L 3.65625 0 L 2.140625 0 L 3.046875 -5.515625 L 1.25 -5.515625 L 1.453125 -6.84375 L 6.578125 -6.84375 Z M 6.375 -5.515625 "/></g></g></g><g fill="#ffffff" fill-opacity="1"><g transform="translate(182.238892, 82.98369)"><g><path d="M 1.6875 -6.84375 L 3.234375 -6.84375 L 2.109375 0 L 0.578125 0 Z M 1.6875 -6.84375 "/></g></g></g><g fill="#ffffff" fill-opacity="1"><g transform="translate(187.019747, 82.98369)"><g><path d="M 4.65625 -1.578125 L 2.46875 -1.578125 L 1.71875 0 L 0.171875 0 L 3.734375 -6.84375 L 5.140625 -6.84375 L 6.453125 0 L 4.90625 0 Z M 4.484375 -2.75 L 4.140625 -4.953125 L 4.078125 -4.953125 L 3.03125 -2.75 Z M 4.484375 -2.75 "/></g></g></g><g fill="#ffffff" fill-opacity="1"><g transform="translate(195.680377, 82.98369)"><g><path d="M 5.140625 -1.328125 L 4.921875 0 L 0.515625 0 L 1.609375 -6.84375 L 3.15625 -6.84375 L 2.25 -1.328125 Z M 5.140625 -1.328125 "/></g></g></g></svg>